<?xml version="1.0" encoding="UTF-8"?>
<!DOCTYPE svg PUBLIC "-//W3C//DTD SVG 1.1//EN" "http://www.w3.org/Graphics/SVG/1.1/DTD/svg11.dtd">
<svg xmlns="http://www.w3.org/2000/svg" version="1.1" width="500px" height="500px" style="shape-rendering:geometricPrecision; text-rendering:geometricPrecision; image-rendering:optimizeQuality; fill-rule:evenodd; clip-rule:evenodd" xmlns:xlink="http://www.w3.org/1999/xlink">
<g><path style="opacity:0.987" fill="#fdfdfc" d="M 241.5,77.5 C 261.055,75.5648 273.888,83.8981 280,102.5C 304.733,88.2731 323.567,93.9398 336.5,119.5C 351.018,111.496 364.185,113.163 376,124.5C 379.232,129.361 380.732,134.694 380.5,140.5C 398.423,140.629 408.09,149.629 409.5,167.5C 407.993,180.339 403.326,191.839 395.5,202C 406.727,201.227 413.227,206.394 415,217.5C 434.681,214.007 448.681,221.34 457,239.5C 463.983,262.199 456.483,277.865 434.5,286.5C 434.683,307.073 424.683,315.407 404.5,311.5C 403.201,359.263 380.201,391.096 335.5,407C 306.361,416.149 277.028,416.816 247.5,409C 237.511,405.59 228.344,400.757 220,394.5C 206.114,403.764 190.948,407.264 174.5,405C 164.15,401.149 159.15,393.649 159.5,382.5C 150.698,382.202 144.865,377.869 142,369.5C 141.729,365.046 141.563,360.713 141.5,356.5C 132.015,360.63 123.348,359.297 115.5,352.5C 97.5599,356.057 86.0599,349.057 81,331.5C 78.6135,318.834 81.7802,307.834 90.5,298.5C 82.596,287.199 84.2627,277.699 95.5,270C 56.0925,265.594 33.2592,243.761 27,204.5C 24.0467,176.408 26.3801,148.741 34,121.5C 37.0602,109.319 40.7269,97.3191 45,85.5C 82.6916,78.2147 119.192,82.3814 154.5,98C 167.613,104.056 180.28,110.889 192.5,118.5C 195.709,114.127 199.709,110.627 204.5,108C 209.222,107.223 213.889,107.39 218.5,108.5C 220.134,93.5207 227.8,83.1874 241.5,77.5 Z"/></g>
<g><path style="opacity:1" fill="#516e0d" d="M 253.5,90.5 C 255.166,96.6752 254.666,102.675 252,108.5C 251.968,114.652 251.135,120.652 249.5,126.5C 249.668,128.171 250.335,129.504 251.5,130.5C 255.116,145.111 264.45,153.444 279.5,155.5C 280.5,155.167 281.5,154.833 282.5,154.5C 273.987,145.126 270.153,134.126 271,121.5C 272.605,117.724 275.438,115.724 279.5,115.5C 279.716,121.603 281.883,126.936 286,131.5C 286.126,138.274 286.959,144.94 288.5,151.5C 288.379,152.894 288.046,154.228 287.5,155.5C 288.325,156.386 289.325,156.719 290.5,156.5C 298.23,156.55 305.896,155.884 313.5,154.5C 308.137,146.909 305.137,138.409 304.5,129C 305.59,122.072 309.59,118.572 316.5,118.5C 318.144,121.004 319.644,123.671 321,126.5C 321.667,129.5 321.667,132.5 321,135.5C 318.889,137.102 317.389,139.102 316.5,141.5C 317.725,143.892 318.725,146.392 319.5,149C 318.21,151.292 316.543,153.292 314.5,155C 316.473,155.495 318.473,155.662 320.5,155.5C 330.93,154.756 340.597,157.089 349.5,162.5C 349.833,162.167 350.167,161.833 350.5,161.5C 347.68,153.733 346.847,145.733 348,137.5C 350.056,132.935 353.556,130.602 358.5,130.5C 357.489,132.402 357.322,134.402 358,136.5C 359.517,139.343 361.017,142.177 362.5,145C 361.392,147.112 359.892,148.946 358,150.5C 358.451,156.044 356.285,160.21 351.5,163C 352.789,164.802 354.456,165.969 356.5,166.5C 360.89,171.397 364.723,176.73 368,182.5C 368.878,174.528 371.711,167.361 376.5,161C 381.082,157.544 385.416,157.71 389.5,161.5C 388.829,164.758 387.996,168.091 387,171.5C 385.266,172.249 383.433,172.749 381.5,173C 380.167,175 378.833,177 377.5,179C 373.795,180.003 371.129,182.17 369.5,185.5C 369.855,186.522 370.522,187.189 371.5,187.5C 373.456,193.367 374.79,199.367 375.5,205.5C 372.119,205.46 368.786,205.793 365.5,206.5C 365.079,199.573 363.079,193.24 359.5,187.5C 359.209,186.351 358.376,185.684 357,185.5C 352.707,186.779 349.207,189.279 346.5,193C 341.777,193.624 337.11,193.29 332.5,192C 331.944,191.617 331.611,191.117 331.5,190.5C 332.921,185.91 335.921,182.744 340.5,181C 345.859,180.641 351.193,180.641 356.5,181C 350.204,171.689 341.537,166.189 330.5,164.5C 321.975,164.096 317.475,168.429 317,177.5C 314.958,179.604 312.458,180.771 309.5,181C 307.382,182.049 305.716,183.549 304.5,185.5C 301.954,173.975 306.621,166.642 318.5,163.5C 319.756,163.539 320.756,163.039 321.5,162C 314.654,161.179 307.987,161.346 301.5,162.5C 298.721,162.279 296.054,162.612 293.5,163.5C 289.946,161.798 287.113,162.798 285,166.5C 283.593,171.397 281.427,175.897 278.5,180C 276.722,180.704 274.888,181.204 273,181.5C 269.542,180.714 266.042,180.38 262.5,180.5C 263.162,170.989 268.162,164.822 277.5,162C 263.068,157.985 253.068,149.151 247.5,135.5C 247.5,134.5 247.5,133.5 247.5,132.5C 245.473,132.338 243.473,132.505 241.5,133C 235.081,135.228 228.748,137.562 222.5,140C 219.743,140.782 217.243,140.282 215,138.5C 214.601,138.728 214.435,139.062 214.5,139.5C 212.647,134.353 214.314,130.52 219.5,128C 228.081,124.448 236.414,124.948 244.5,129.5C 244.833,129.167 245.167,128.833 245.5,128.5C 239.877,117.314 239.377,105.981 244,94.5C 246.408,91.3799 249.574,90.0466 253.5,90.5 Z"/></g>
<g><path style="opacity:1" fill="#44590e" d="M 253.5,90.5 C 255.963,90.7811 258.13,91.7811 260,93.5C 264.357,101.759 264.357,110.092 260,118.5C 257.336,122.657 254.503,126.657 251.5,130.5C 250.335,129.504 249.668,128.171 249.5,126.5C 251.135,120.652 251.968,114.652 252,108.5C 254.666,102.675 255.166,96.6752 253.5,90.5 Z"/></g>
<g><path style="opacity:1" fill="#374e01" d="M 73.5,96.5 C 81.7673,102.76 89.7673,109.427 97.5,116.5C 98.1667,117.833 99.1667,118.833 100.5,119.5C 109.891,129.277 117.558,140.277 123.5,152.5C 124.512,153.872 125.512,155.205 126.5,156.5C 129.088,163.092 131.588,169.759 134,176.5C 134.996,180.816 135.83,185.149 136.5,189.5C 137.63,191.315 138.296,193.315 138.5,195.5C 138.956,198.906 139.622,202.239 140.5,205.5C 140.942,209.154 141.276,212.821 141.5,216.5C 144.069,235.409 145.236,254.409 145,273.5C 130.824,282.152 124.324,278.152 125.5,261.5C 125.61,250.815 125.277,240.148 124.5,229.5C 124.5,227.833 124.5,226.167 124.5,224.5C 124.5,219.167 124.5,213.833 124.5,208.5C 124.818,203.968 124.485,199.634 123.5,195.5C 123.5,194.167 123.5,192.833 123.5,191.5C 123.363,180.956 121.03,170.956 116.5,161.5C 116.107,159.716 115.441,158.05 114.5,156.5C 110.008,145.502 104.008,135.502 96.5,126.5C 95.1363,124.809 93.803,123.142 92.5,121.5C 85.4254,113.089 77.4254,105.756 68.5,99.5C 67.8466,98.1932 67.1799,96.8599 66.5,95.5C 67.1667,95.1667 67.8333,94.8333 68.5,94.5C 70.1772,95.1869 71.8439,95.8535 73.5,96.5 Z"/></g>
<g><path style="opacity:1" fill="#84a533" d="M 73.5,96.5 C 82.4441,98.4906 91.4441,100.157 100.5,101.5C 100.149,106.761 99.1489,111.761 97.5,116.5C 89.7673,109.427 81.7673,102.76 73.5,96.5 Z"/></g>
<g><path style="opacity:1" fill="#83a532" d="M 68.5,99.5 C 77.4254,105.756 85.4254,113.089 92.5,121.5C 84.6485,122.715 76.6485,122.715 68.5,121.5C 69.8014,114.197 69.8014,106.864 68.5,99.5 Z"/></g>
<g><path style="opacity:1" fill="#52700a" d="M 100.5,101.5 C 101.492,101.328 102.158,101.662 102.5,102.5C 102.124,108.217 101.457,113.884 100.5,119.5C 99.1667,118.833 98.1667,117.833 97.5,116.5C 99.1489,111.761 100.149,106.761 100.5,101.5 Z"/></g>
<g><path style="opacity:1" fill="#83a530" d="M 102.5,102.5 C 113.895,102.363 125.229,103.029 136.5,104.5C 135.437,118.194 132.604,131.527 128,144.5C 127.14,147.633 125.64,150.3 123.5,152.5C 117.558,140.277 109.891,129.277 100.5,119.5C 101.457,113.884 102.124,108.217 102.5,102.5 Z"/></g>
<g><path style="opacity:1" fill="#83a531" d="M 138.5,104.5 C 153.486,106.497 166.486,112.497 177.5,122.5C 168.691,147.796 155.525,170.462 138,190.5C 137.617,189.944 137.117,189.611 136.5,189.5C 135.83,185.149 134.996,180.816 134,176.5C 131.588,169.759 129.088,163.092 126.5,156.5C 133.277,139.858 137.277,122.525 138.5,104.5 Z"/></g>
<g><path style="opacity:1" fill="#54730b" d="M 136.5,104.5 C 137.167,104.5 137.833,104.5 138.5,104.5C 137.277,122.525 133.277,139.858 126.5,156.5C 125.512,155.205 124.512,153.872 123.5,152.5C 125.64,150.3 127.14,147.633 128,144.5C 132.604,131.527 135.437,118.194 136.5,104.5 Z"/></g>
<g><path style="opacity:1" fill="#44590e" d="M 279.5,115.5 C 287.282,116.445 292.116,120.778 294,128.5C 294.667,131.833 294.667,135.167 294,138.5C 292.494,144.483 291.328,150.483 290.5,156.5C 289.325,156.719 288.325,156.386 287.5,155.5C 288.046,154.228 288.379,152.894 288.5,151.5C 286.959,144.94 286.126,138.274 286,131.5C 281.883,126.936 279.716,121.603 279.5,115.5 Z"/></g>
<g><path style="opacity:1" fill="#445a0e" d="M 316.5,118.5 C 321.221,120.215 324.388,123.548 326,128.5C 327.439,136.521 325.773,143.854 321,150.5C 320.506,152.134 320.34,153.801 320.5,155.5C 318.473,155.662 316.473,155.495 314.5,155C 316.543,153.292 318.21,151.292 319.5,149C 318.725,146.392 317.725,143.892 316.5,141.5C 317.389,139.102 318.889,137.102 321,135.5C 321.667,132.5 321.667,129.5 321,126.5C 319.644,123.671 318.144,121.004 316.5,118.5 Z"/></g>
<g><path style="opacity:1" fill="#54720b" d="M 68.5,122.5 C 68.5,122.167 68.5,121.833 68.5,121.5C 76.6485,122.715 84.6485,122.715 92.5,121.5C 93.803,123.142 95.1363,124.809 96.5,126.5C 86.8667,126.839 77.5334,125.506 68.5,122.5 Z"/></g>
<g><path style="opacity:1" fill="#83a531" d="M 68.5,122.5 C 77.5334,125.506 86.8667,126.839 96.5,126.5C 104.008,135.502 110.008,145.502 114.5,156.5C 95.017,158.671 76.3503,155.671 58.5,147.5C 62.6193,139.474 65.9527,131.141 68.5,122.5 Z"/></g>
<g><path style="opacity:1" fill="#83a530" d="M 178.5,123.5 C 179.71,123.932 180.71,124.599 181.5,125.5C 180.957,125.56 180.624,125.893 180.5,126.5C 183.609,133.051 186.442,139.718 189,146.5C 189.667,151.833 189.667,157.167 189,162.5C 187.6,165.902 185.433,168.736 182.5,171C 177.436,173.127 172.602,175.627 168,178.5C 167.333,179.833 166.667,181.167 166,182.5C 167.613,201.729 159.113,209.396 140.5,205.5C 139.622,202.239 138.956,198.906 138.5,195.5C 156.972,174.573 170.306,150.573 178.5,123.5 Z"/></g>
<g><path style="opacity:1" fill="#729027" d="M 181.5,125.5 C 190.343,133.839 196.676,143.839 200.5,155.5C 189.36,173.504 176.026,190.004 160.5,205C 155.5,208.667 150.5,212.333 145.5,216C 144.748,216.671 144.414,217.504 144.5,218.5C 143.5,217.833 142.5,217.167 141.5,216.5C 141.276,212.821 140.942,209.154 140.5,205.5C 159.113,209.396 167.613,201.729 166,182.5C 166.667,181.167 167.333,179.833 168,178.5C 172.602,175.627 177.436,173.127 182.5,171C 185.433,168.736 187.6,165.902 189,162.5C 189.667,157.167 189.667,151.833 189,146.5C 186.442,139.718 183.609,133.051 180.5,126.5C 180.624,125.893 180.957,125.56 181.5,125.5 Z"/></g>
<g><path style="opacity:1" fill="#445a0e" d="M 358.5,130.5 C 363.12,131.692 365.953,134.692 367,139.5C 368.068,144.768 367.401,149.768 365,154.5C 361.559,158.102 358.725,162.102 356.5,166.5C 354.456,165.969 352.789,164.802 351.5,163C 356.285,160.21 358.451,156.044 358,150.5C 359.892,148.946 361.392,147.112 362.5,145C 361.017,142.177 359.517,139.343 358,136.5C 357.322,134.402 357.489,132.402 358.5,130.5 Z"/></g>
<g><path style="opacity:1" fill="#445a0f" d="M 247.5,135.5 C 241.866,136.151 237.199,138.651 233.5,143C 228.304,146.916 222.971,147.249 217.5,144C 215.859,142.871 214.859,141.371 214.5,139.5C 214.435,139.062 214.601,138.728 215,138.5C 217.243,140.282 219.743,140.782 222.5,140C 228.748,137.562 235.081,135.228 241.5,133C 243.473,132.505 245.473,132.338 247.5,132.5C 247.5,133.5 247.5,134.5 247.5,135.5 Z"/></g>
<g><path style="opacity:1" fill="#527009" d="M 177.5,122.5 C 178.167,122.5 178.5,122.833 178.5,123.5C 170.306,150.573 156.972,174.573 138.5,195.5C 138.296,193.315 137.63,191.315 136.5,189.5C 137.117,189.611 137.617,189.944 138,190.5C 155.525,170.462 168.691,147.796 177.5,122.5 Z"/></g>
<g><path style="opacity:1" fill="#83a530" d="M 58.5,148.5 C 76.5345,158.397 95.8678,162.731 116.5,161.5C 121.03,170.956 123.363,180.956 123.5,191.5C 111.829,191.667 100.162,191.5 88.5,191C 75.5103,188.918 62.8437,185.918 50.5,182C 73.5368,193.106 97.8701,197.606 123.5,195.5C 124.485,199.634 124.818,203.968 124.5,208.5C 121.06,210.035 117.393,210.702 113.5,210.5C 106.242,209.027 98.9085,208.527 91.5,209C 84.3179,215.393 75.9846,217.727 66.5,216C 63.0976,214.6 60.2643,212.433 58,209.5C 54.4886,204.106 51.6552,198.439 49.5,192.5C 49.2929,177.048 52.2929,162.382 58.5,148.5 Z"/></g>
<g><path style="opacity:1" fill="#516f08" d="M 58.5,148.5 C 58.5,148.167 58.5,147.833 58.5,147.5C 76.3503,155.671 95.017,158.671 114.5,156.5C 115.441,158.05 116.107,159.716 116.5,161.5C 95.8678,162.731 76.5345,158.397 58.5,148.5 Z"/></g>
<g><path style="opacity:1" fill="#739028" d="M 200.5,156.5 C 207.174,174.383 205.341,191.383 195,207.5C 181.556,223.404 165.389,227.404 146.5,219.5C 169.847,203.178 187.847,182.178 200.5,156.5 Z"/></g>
<g><path style="opacity:1" fill="#9eaf77" d="M 301.5,162.5 C 307.987,161.346 314.654,161.179 321.5,162C 320.756,163.039 319.756,163.539 318.5,163.5C 313.025,162.511 307.358,162.178 301.5,162.5 Z"/></g>
<g><path style="opacity:1" fill="#43590d" d="M 293.5,163.5 C 290.027,169.774 286.527,176.108 283,182.5C 278.362,188.537 272.529,190.037 265.5,187C 263.549,185.266 262.549,183.099 262.5,180.5C 266.042,180.38 269.542,180.714 273,181.5C 274.888,181.204 276.722,180.704 278.5,180C 281.427,175.897 283.593,171.397 285,166.5C 287.113,162.798 289.946,161.798 293.5,163.5 Z"/></g>
<g><path style="opacity:1" fill="#43590d" d="M 330.5,164.5 C 327.528,170.234 325.028,176.234 323,182.5C 321.561,185.603 319.727,188.436 317.5,191C 310.776,194.33 306.443,192.497 304.5,185.5C 305.716,183.549 307.382,182.049 309.5,181C 312.458,180.771 314.958,179.604 317,177.5C 317.475,168.429 321.975,164.096 330.5,164.5 Z"/></g>
<g><path style="opacity:1" fill="#465c11" d="M 389.5,161.5 C 391.803,169.426 389.469,175.593 382.5,180C 379.382,181.059 376.382,182.392 373.5,184C 372.177,184.816 371.511,185.983 371.5,187.5C 370.522,187.189 369.855,186.522 369.5,185.5C 371.129,182.17 373.795,180.003 377.5,179C 378.833,177 380.167,175 381.5,173C 383.433,172.749 385.266,172.249 387,171.5C 387.996,168.091 388.829,164.758 389.5,161.5 Z"/></g>
<g><path style="opacity:1" fill="#506e08" d="M 200.5,155.5 C 200.5,155.833 200.5,156.167 200.5,156.5C 187.847,182.178 169.847,203.178 146.5,219.5C 145.833,219.167 145.167,218.833 144.5,218.5C 144.414,217.504 144.748,216.671 145.5,216C 150.5,212.333 155.5,208.667 160.5,205C 176.026,190.004 189.36,173.504 200.5,155.5 Z"/></g>
<g><path style="opacity:1" fill="#445a0f" d="M 359.5,187.5 C 355.298,192.021 350.964,196.521 346.5,201C 337.983,205.241 332.65,202.741 330.5,193.5C 330.52,192.274 330.853,191.274 331.5,190.5C 331.611,191.117 331.944,191.617 332.5,192C 337.11,193.29 341.777,193.624 346.5,193C 349.207,189.279 352.707,186.779 357,185.5C 358.376,185.684 359.209,186.351 359.5,187.5 Z"/></g>
<g><path style="opacity:1" fill="#516f08" d="M 123.5,191.5 C 123.5,192.833 123.5,194.167 123.5,195.5C 97.8701,197.606 73.5368,193.106 50.5,182C 62.8437,185.918 75.5103,188.918 88.5,191C 100.162,191.5 111.829,191.667 123.5,191.5 Z"/></g>
<g><path style="opacity:1" fill="#445910" d="M 223.5,192.5 C 236.503,191.177 244.503,196.844 247.5,209.5C 244.626,209.451 241.792,209.784 239,210.5C 229.278,200.017 221.945,201.684 217,215.5C 213.585,226.992 215.752,237.159 223.5,246C 237.242,248.034 241.575,242.534 236.5,229.5C 233.914,228.52 231.247,228.187 228.5,228.5C 228.276,224.821 227.942,221.154 227.5,217.5C 235.167,217.5 242.833,217.5 250.5,217.5C 250.5,221.167 250.5,224.833 250.5,228.5C 249.325,228.281 248.325,228.614 247.5,229.5C 251.982,243.371 247.315,252.537 233.5,257C 222.428,259.213 214.262,255.38 209,245.5C 205.616,235.442 204.616,225.108 206,214.5C 208.373,204.305 214.207,196.972 223.5,192.5 Z"/></g>
<g><path style="opacity:1" fill="#729026" d="M 49.5,192.5 C 51.6552,198.439 54.4886,204.106 58,209.5C 60.2643,212.433 63.0976,214.6 66.5,216C 75.9846,217.727 84.3179,215.393 91.5,209C 98.9085,208.527 106.242,209.027 113.5,210.5C 117.393,210.702 121.06,210.035 124.5,208.5C 124.5,213.833 124.5,219.167 124.5,224.5C 99.6457,227.235 75.6457,223.902 52.5,214.5C 49.8977,207.526 48.8977,200.193 49.5,192.5 Z"/></g>
<g><path style="opacity:1" fill="#43590f" d="M 273.5,197.5 C 287.874,197.444 296.707,204.444 300,218.5C 302.164,230.689 298.998,241.189 290.5,250C 273.316,258.166 261.816,253 256,234.5C 252.397,217.392 258.23,205.058 273.5,197.5 Z"/></g>
<g><path style="opacity:1" fill="#fbfbf9" d="M 274.5,208.5 C 282.02,208.509 286.853,212.176 289,219.5C 290.356,226.576 289.356,233.243 286,239.5C 280.036,245.032 274.369,244.698 269,238.5C 263.049,226.896 264.882,216.896 274.5,208.5 Z"/></g>
<g><path style="opacity:1" fill="#739029" d="M 52.5,216.5 C 67.6948,222.382 83.3615,226.549 99.5,229C 107.827,229.5 116.16,229.666 124.5,229.5C 125.277,240.148 125.61,250.815 125.5,261.5C 124.833,253.99 124.167,246.323 123.5,238.5C 90.9724,259.735 67.3058,252.402 52.5,216.5 Z"/></g>
<g><path style="opacity:1" fill="#4f6d07" d="M 52.5,214.5 C 75.6457,223.902 99.6457,227.235 124.5,224.5C 124.5,226.167 124.5,227.833 124.5,229.5C 116.16,229.666 107.827,229.5 99.5,229C 83.3615,226.549 67.6948,222.382 52.5,216.5C 52.5,215.833 52.5,215.167 52.5,214.5 Z"/></g>
<g><path style="opacity:1" fill="#42570c" d="M 339.5,268.5 C 339.013,267.527 338.513,266.527 338,265.5C 337.5,281.163 337.333,296.83 337.5,312.5C 333.5,312.5 329.5,312.5 325.5,312.5C 325.5,287.5 325.5,262.5 325.5,237.5C 329.767,237.203 333.934,237.536 338,238.5C 345.333,252.5 352.667,266.5 360,280.5C 360.583,263.167 361.083,245.834 361.5,228.5C 365.833,228.5 370.167,228.5 374.5,228.5C 373.072,254.477 372.405,280.477 372.5,306.5C 367.901,306.8 363.401,306.467 359,305.5C 352.487,293.14 345.987,280.806 339.5,268.5 Z"/></g>
<g><path style="opacity:1" fill="#fe9f2f" d="M 395.5,227.5 C 403.038,227.271 408.372,230.604 411.5,237.5C 416.741,232.454 422.741,231.288 429.5,234C 432.393,238.025 433.226,242.525 432,247.5C 430.691,249.976 428.858,251.976 426.5,253.5C 432.951,256.597 436.618,261.597 437.5,268.5C 436.379,277.913 431.046,281.746 421.5,280C 418.073,278.569 415.24,276.402 413,273.5C 412.217,283.295 407.05,287.462 397.5,286C 394.328,282.819 392.994,278.986 393.5,274.5C 379.185,275.696 374.685,269.696 380,256.5C 383.236,253.129 387.069,250.629 391.5,249C 383.909,240.247 385.242,233.08 395.5,227.5 Z"/></g>
<g><path style="opacity:1" fill="#42580d" d="M 195.5,281.5 C 192.038,280.518 188.371,280.185 184.5,280.5C 184.5,276.5 184.5,272.5 184.5,268.5C 189.695,268.821 194.695,268.487 199.5,267.5C 204.167,267.5 208.833,267.5 213.5,267.5C 213.5,271.833 213.5,276.167 213.5,280.5C 212.167,280.5 210.833,280.5 209.5,280.5C 215.615,307.89 204.615,320.723 176.5,319C 165.056,314.312 158.222,305.812 156,293.5C 152.455,277.385 154.455,262.052 162,247.5C 171.558,234.402 183.725,231.235 198.5,238C 203.531,242.553 207.198,248.053 209.5,254.5C 205.317,256.137 200.984,257.137 196.5,257.5C 193.581,247.041 187.248,244.207 177.5,249C 169.662,256.823 165.995,266.323 166.5,277.5C 166.411,285.64 168.245,293.306 172,300.5C 176.53,306.171 182.363,308.004 189.5,306C 196.181,304.485 199.181,300.319 198.5,293.5C 198.689,289.092 197.689,285.092 195.5,281.5 Z"/></g>
<g><path style="opacity:1" fill="#c32e34" d="M 403.5,249.5 C 412.158,248.327 415.992,251.994 415,260.5C 411.108,266.259 406.441,266.926 401,262.5C 398.458,257.438 399.292,253.105 403.5,249.5 Z"/></g>
<g><path style="opacity:1" fill="#41560a" d="M 257.5,255.5 C 267.5,255.5 277.5,255.5 287.5,255.5C 287.5,259.5 287.5,263.5 287.5,267.5C 281.833,267.5 276.167,267.5 270.5,267.5C 270.5,269.833 270.5,272.167 270.5,274.5C 274.5,274.5 278.5,274.5 282.5,274.5C 282.5,278.5 282.5,282.5 282.5,286.5C 278.486,286.334 274.486,286.501 270.5,287C 269.577,289.041 269.244,291.208 269.5,293.5C 274.833,293.5 280.167,293.5 285.5,293.5C 285.5,297.5 285.5,301.5 285.5,305.5C 276.147,306.64 266.814,306.64 257.5,305.5C 257.5,288.833 257.5,272.167 257.5,255.5 Z"/></g>
<g><path style="opacity:1" fill="#42580d" d="M 228.5,322.5 C 224.5,322.5 220.5,322.5 216.5,322.5C 216.5,303.5 216.5,284.5 216.5,265.5C 224.033,264.277 231.7,264.443 239.5,266C 251.915,269.421 256.082,277.254 252,289.5C 249.833,293 247,295.833 243.5,298C 248.073,303.15 252.406,308.483 256.5,314C 253.308,316.692 249.975,319.192 246.5,321.5C 240.604,314.723 234.938,307.723 229.5,300.5C 228.503,307.803 228.169,315.137 228.5,322.5 Z"/></g>
<g><path style="opacity:1" fill="#cdd3bf" d="M 339.5,268.5 C 338.833,283.167 338.167,297.833 337.5,312.5C 337.333,296.83 337.5,281.163 338,265.5C 338.513,266.527 339.013,267.527 339.5,268.5 Z"/></g>
<g><path style="opacity:1" fill="#a0ab85" d="M 199.5,267.5 C 194.695,268.487 189.695,268.821 184.5,268.5C 184.5,272.5 184.5,276.5 184.5,280.5C 188.371,280.185 192.038,280.518 195.5,281.5C 191.5,281.5 187.5,281.5 183.5,281.5C 183.5,276.833 183.5,272.167 183.5,267.5C 188.833,267.5 194.167,267.5 199.5,267.5 Z"/></g>
<g><path style="opacity:1" fill="#8b9869" d="M 289.5,271.5 C 299.319,270.506 309.319,270.173 319.5,270.5C 319.5,272.167 319.5,273.833 319.5,275.5C 318.566,274.432 318.232,273.099 318.5,271.5C 308.833,271.5 299.167,271.5 289.5,271.5 Z"/></g>
<g><path style="opacity:1" fill="#405609" d="M 289.5,271.5 C 299.167,271.5 308.833,271.5 318.5,271.5C 318.232,273.099 318.566,274.432 319.5,275.5C 319.5,278.167 319.5,280.833 319.5,283.5C 315.167,283.5 310.833,283.5 306.5,283.5C 304.833,283.5 303.167,283.5 301.5,283.5C 301.5,285.833 301.5,288.167 301.5,290.5C 305.5,290.5 309.5,290.5 313.5,290.5C 313.198,293.059 313.532,295.393 314.5,297.5C 314.5,299.167 314.5,300.833 314.5,302.5C 310.167,302.5 305.833,302.5 301.5,302.5C 301.5,304.833 301.5,307.167 301.5,309.5C 306.833,309.5 312.167,309.5 317.5,309.5C 317.5,313.5 317.5,317.5 317.5,321.5C 308.167,321.5 298.833,321.5 289.5,321.5C 289.5,304.833 289.5,288.167 289.5,271.5 Z"/></g>
<g><path style="opacity:1" fill="#f6f7f4" d="M 230.5,277.5 C 233.216,277.678 235.883,278.178 238.5,279C 242.376,281.128 242.376,283.461 238.5,286C 235.883,286.822 233.216,287.322 230.5,287.5C 230.5,284.167 230.5,280.833 230.5,277.5 Z"/></g>
<g><path style="opacity:1" fill="#9faa84" d="M 306.5,283.5 C 305.432,284.434 304.099,284.768 302.5,284.5C 302.5,286.167 302.5,287.833 302.5,289.5C 306.5,289.5 310.5,289.5 314.5,289.5C 314.5,292.167 314.5,294.833 314.5,297.5C 313.532,295.393 313.198,293.059 313.5,290.5C 309.5,290.5 305.5,290.5 301.5,290.5C 301.5,288.167 301.5,285.833 301.5,283.5C 303.167,283.5 304.833,283.5 306.5,283.5 Z"/></g>
<g><path style="opacity:1" fill="#f59f38" d="M 115.5,293.5 C 123.827,291.979 128.493,295.312 129.5,303.5C 132.156,302.842 134.822,302.175 137.5,301.5C 144.666,302.511 147.166,306.511 145,313.5C 143.629,316.371 141.463,318.371 138.5,319.5C 142.866,323.224 144.7,327.891 144,333.5C 141.232,339.172 136.732,341.006 130.5,339C 127.689,337.356 125.356,335.19 123.5,332.5C 121.048,338.393 116.715,340.559 110.5,339C 107.328,335.639 106.662,331.805 108.5,327.5C 101.015,327.517 97.5148,323.85 98,316.5C 101.345,311.901 105.845,308.901 111.5,307.5C 109.294,301.662 110.627,296.995 115.5,293.5 Z"/></g>
<g><path style="opacity:1" fill="#ca503b" d="M 119.5,310.5 C 128.745,309.899 131.411,313.732 127.5,322C 120.388,324.554 116.888,322.054 117,314.5C 117.662,313.016 118.496,311.683 119.5,310.5 Z"/></g>
<g><path style="opacity:1" fill="#9ca77f" d="M 216.5,265.5 C 216.5,284.5 216.5,303.5 216.5,322.5C 220.5,322.5 224.5,322.5 228.5,322.5C 224.366,323.485 220.032,323.818 215.5,323.5C 215.17,303.993 215.503,284.659 216.5,265.5 Z"/></g>
<g><path style="opacity:1" fill="#516f0a" d="M 363.5,339.5 C 359.939,341.048 356.606,343.048 353.5,345.5C 352.089,354.458 351.089,363.458 350.5,372.5C 350.167,373.5 349.5,374.167 348.5,374.5C 348.888,366.002 348.888,357.336 348.5,348.5C 344.296,351.2 339.963,353.7 335.5,356C 333.623,358.251 332.123,360.751 331,363.5C 327.391,372.83 323.891,382.163 320.5,391.5C 319.791,392.404 318.791,392.737 317.5,392.5C 321.195,381.918 325.195,371.418 329.5,361C 329.167,360.5 328.833,360 328.5,359.5C 323.024,361.935 317.524,364.268 312,366.5C 306.222,376.394 300.722,386.394 295.5,396.5C 295.167,396.5 294.833,396.5 294.5,396.5C 293.624,396.631 292.957,396.298 292.5,395.5C 297.667,386.5 302.833,377.5 308,368.5C 308.688,367.668 308.521,367.002 307.5,366.5C 301.668,368.315 295.668,369.482 289.5,370C 284.291,377.582 279.457,385.416 275,393.5C 273.989,394.337 272.822,394.67 271.5,394.5C 275.738,387.027 280.238,379.694 285,372.5C 285.432,371.4 284.932,370.733 283.5,370.5C 278.53,371.229 273.53,371.729 268.5,372C 264.344,377.985 259.677,383.485 254.5,388.5C 254.167,388.5 253.833,388.5 253.5,388.5C 256.625,382.439 260.625,376.939 265.5,372C 260.564,370.592 255.564,369.925 250.5,370C 247.297,373.371 243.964,376.538 240.5,379.5C 240.167,379.5 239.833,379.5 239.5,379.5C 241.893,375.598 244.893,372.098 248.5,369C 240.745,366.288 233.412,362.788 226.5,358.5C 225.375,357.652 225.375,356.652 226.5,355.5C 232.886,358.864 239.553,361.364 246.5,363C 241.949,357.289 237.616,351.456 233.5,345.5C 234.391,344.89 235.391,344.557 236.5,344.5C 240.871,351.718 245.871,358.551 251.5,365C 256.455,366.218 261.455,366.551 266.5,366C 260.208,358.888 254.542,351.388 249.5,343.5C 250.5,343.5 251.5,343.5 252.5,343.5C 257.793,351.239 263.46,358.739 269.5,366C 275.616,366.824 281.616,366.324 287.5,364.5C 281.186,357.018 274.686,349.685 268,342.5C 267.517,341.552 267.351,340.552 267.5,339.5C 268.167,339.5 268.833,339.5 269.5,339.5C 276.137,347.915 283.137,356.081 290.5,364C 298.26,364.191 305.593,362.524 312.5,359C 303.586,349.925 295.252,340.425 287.5,330.5C 287.842,329.662 288.508,329.328 289.5,329.5C 298.144,339.147 306.811,348.813 315.5,358.5C 321.192,355.991 326.526,352.991 331.5,349.5C 322.543,341.358 313.21,333.691 303.5,326.5C 304.568,325.566 305.901,325.232 307.5,325.5C 316.688,333.029 325.855,340.696 335,348.5C 338.922,345.789 342.756,342.955 346.5,340C 339.222,333.543 331.556,327.709 323.5,322.5C 325.389,321.258 327.389,321.258 329.5,322.5C 335.811,327.969 342.311,333.302 349,338.5C 352.145,336.024 355.312,333.69 358.5,331.5C 366.293,325.431 374.293,319.598 382.5,314C 385.696,313.942 388.029,315.442 389.5,318.5C 388.687,319.814 387.687,320.981 386.5,322C 378.649,327.697 370.982,333.53 363.5,339.5 Z"/></g>
<g><path style="opacity:1" fill="#b8c1a2" d="M 289.5,271.5 C 289.5,288.167 289.5,304.833 289.5,321.5C 298.833,321.5 308.167,321.5 317.5,321.5C 317.5,321.833 317.5,322.167 317.5,322.5C 316.791,323.404 315.791,323.737 314.5,323.5C 306.016,322.507 297.349,322.174 288.5,322.5C 288.17,305.325 288.503,288.325 289.5,271.5 Z"/></g>
<g><path style="opacity:1" fill="#83a530" d="M 317.5,322.5 C 319.5,322.5 321.5,322.5 323.5,322.5C 331.556,327.709 339.222,333.543 346.5,340C 342.756,342.955 338.922,345.789 335,348.5C 325.855,340.696 316.688,333.029 307.5,325.5C 309.701,324.434 312.035,323.767 314.5,323.5C 315.791,323.737 316.791,323.404 317.5,322.5 Z"/></g>
<g><path style="opacity:1" fill="#82a332" d="M 329.5,322.5 C 333.247,322.392 336.914,322.892 340.5,324C 346.611,326.42 352.611,328.92 358.5,331.5C 355.312,333.69 352.145,336.024 349,338.5C 342.311,333.302 335.811,327.969 329.5,322.5 Z"/></g>
<g><path style="opacity:1" fill="#83a530" d="M 303.5,326.5 C 313.21,333.691 322.543,341.358 331.5,349.5C 326.526,352.991 321.192,355.991 315.5,358.5C 306.811,348.813 298.144,339.147 289.5,329.5C 294.167,328.5 298.833,327.5 303.5,326.5 Z"/></g>
<g><path style="opacity:1" fill="#83a531" d="M 287.5,330.5 C 295.252,340.425 303.586,349.925 312.5,359C 305.593,362.524 298.26,364.191 290.5,364C 283.137,356.081 276.137,347.915 269.5,339.5C 275.025,335.665 281.025,332.665 287.5,330.5 Z"/></g>
<g><path style="opacity:1" fill="#c9503f" d="M 190.5,331.5 C 200.811,332.126 204.811,337.46 202.5,347.5C 211.951,347.424 215.451,351.757 213,360.5C 210.45,364.192 206.95,365.858 202.5,365.5C 202.867,369.967 202.367,374.3 201,378.5C 196.356,383.437 191.356,383.771 186,379.5C 183.563,376.624 182.23,373.29 182,369.5C 172.873,375.247 168.206,372.913 168,362.5C 168.98,361.019 170.147,359.685 171.5,358.5C 164.5,353.677 163.833,348.177 169.5,342C 174.578,339.867 179.411,340.367 184,343.5C 184.333,341.167 184.667,338.833 185,336.5C 186.73,334.598 188.563,332.931 190.5,331.5 Z"/></g>
<g><path style="opacity:1" fill="#7c9c2e" d="M 363.5,339.5 C 364.79,340.058 365.623,341.058 366,342.5C 367.712,350.029 366.045,356.696 361,362.5C 357.631,366.037 354.131,369.371 350.5,372.5C 351.089,363.458 352.089,354.458 353.5,345.5C 356.606,343.048 359.939,341.048 363.5,339.5 Z"/></g>
<g><path style="opacity:1" fill="#83a531" d="M 267.5,339.5 C 267.351,340.552 267.517,341.552 268,342.5C 274.686,349.685 281.186,357.018 287.5,364.5C 281.616,366.324 275.616,366.824 269.5,366C 263.46,358.739 257.793,351.239 252.5,343.5C 257.956,343.791 262.956,342.458 267.5,339.5 Z"/></g>
<g><path style="opacity:1" fill="#83a431" d="M 249.5,343.5 C 254.542,351.388 260.208,358.888 266.5,366C 261.455,366.551 256.455,366.218 251.5,365C 245.871,358.551 240.871,351.718 236.5,344.5C 240.634,343.515 244.968,343.182 249.5,343.5 Z"/></g>
<g><path style="opacity:1" fill="#83a431" d="M 233.5,345.5 C 237.616,351.456 241.949,357.289 246.5,363C 239.553,361.364 232.886,358.864 226.5,355.5C 226.878,350.727 229.212,347.393 233.5,345.5 Z"/></g>
<g><path style="opacity:1" fill="#7c9c2d" d="M 348.5,374.5 C 340.732,382.573 331.398,388.24 320.5,391.5C 323.891,382.163 327.391,372.83 331,363.5C 332.123,360.751 333.623,358.251 335.5,356C 339.963,353.7 344.296,351.2 348.5,348.5C 348.888,357.336 348.888,366.002 348.5,374.5 Z"/></g>
<g><path style="opacity:1" fill="#ecb02a" d="M 187.5,348.5 C 196.633,349.267 198.633,353.433 193.5,361C 186.22,362.719 183.053,359.885 184,352.5C 185.102,351.051 186.269,349.718 187.5,348.5 Z"/></g>
<g><path style="opacity:1" fill="#84a534" d="M 226.5,358.5 C 233.412,362.788 240.745,366.288 248.5,369C 244.893,372.098 241.893,375.598 239.5,379.5C 232.884,373.94 228.551,366.94 226.5,358.5 Z"/></g>
<g><path style="opacity:1" fill="#80a12f" d="M 294.5,396.5 C 286.693,397.877 279.027,397.21 271.5,394.5C 272.822,394.67 273.989,394.337 275,393.5C 279.457,385.416 284.291,377.582 289.5,370C 295.668,369.482 301.668,368.315 307.5,366.5C 308.521,367.002 308.688,367.668 308,368.5C 302.833,377.5 297.667,386.5 292.5,395.5C 292.957,396.298 293.624,396.631 294.5,396.5 Z"/></g>
<g><path style="opacity:1" fill="#7d9e2e" d="M 317.5,392.5 C 310.57,395.392 303.236,396.725 295.5,396.5C 300.722,386.394 306.222,376.394 312,366.5C 317.524,364.268 323.024,361.935 328.5,359.5C 328.833,360 329.167,360.5 329.5,361C 325.195,371.418 321.195,381.918 317.5,392.5 Z"/></g>
<g><path style="opacity:1" fill="#81a22f" d="M 253.5,388.5 C 248.606,386.227 244.273,383.227 240.5,379.5C 243.964,376.538 247.297,373.371 250.5,370C 255.564,369.925 260.564,370.592 265.5,372C 260.625,376.939 256.625,382.439 253.5,388.5 Z"/></g>
<g><path style="opacity:1" fill="#81a22f" d="M 271.5,394.5 C 265.267,393.873 259.6,391.873 254.5,388.5C 259.677,383.485 264.344,377.985 268.5,372C 273.53,371.729 278.53,371.229 283.5,370.5C 284.932,370.733 285.432,371.4 285,372.5C 280.238,379.694 275.738,387.027 271.5,394.5 Z"/></g>
</svg>
