<?xml version="1.0" standalone="no"?>
<!DOCTYPE svg PUBLIC "-//W3C//DTD SVG 20010904//EN"
 "http://www.w3.org/TR/2001/REC-SVG-20010904/DTD/svg10.dtd">
<svg version="1.0" xmlns="http://www.w3.org/2000/svg"
 width="500.000000pt" height="500.000000pt" viewBox="0 0 500.000000 500.000000"
 preserveAspectRatio="xMidYMid meet">

<g transform="translate(0.000000,500.000000) scale(0.100000,-0.100000)"
fill="#000000" stroke="none">
<path d="M1420 3044 c-36 -7 -92 -23 -125 -35 -61 -22 -196 -86 -205 -98 -3
-3 -12 -7 -20 -9 -15 -4 -130 -72 -130 -78 0 -2 37 -21 83 -42 45 -21 112 -59
149 -84 41 -28 71 -42 77 -37 8 6 8 5 1 -3 -9 -11 20 -48 135 -164 67 -67 161
-114 229 -114 75 0 121 16 178 63 53 43 75 76 44 64 -9 -4 -16 -3 -16 1 0 4
-22 15 -49 25 -28 10 -62 32 -79 51 -17 19 -34 32 -39 28 -4 -4 -5 -3 -2 1 4
4 0 29 -7 54 -8 25 -14 67 -14 93 l0 46 -67 22 c-156 49 -342 54 -506 14 -43
-11 -75 -16 -70 -11 5 5 54 21 109 35 132 35 340 38 449 7 39 -11 76 -22 84
-24 15 -4 42 68 56 148 l7 42 -39 10 c-51 15 -154 12 -233 -5z"/>
<path d="M2017 2506 c-111 -41 -177 -143 -177 -271 0 -146 102 -256 252 -272
147 -15 292 95 203 153 -25 16 -28 16 -78 -10 -88 -44 -179 -30 -212 34 -8 16
-15 34 -15 39 0 6 64 11 168 13 92 2 175 7 185 12 14 6 17 4 17 -15 1 -33 31
-97 65 -137 82 -98 260 -119 370 -44 47 32 59 80 29 113 -23 25 -51 24 -99 -6
-136 -84 -279 59 -205 205 37 72 120 91 205 46 25 -14 54 -22 63 -19 54 19 69
74 30 110 -64 58 -173 78 -272 49 -68 -20 -145 -89 -167 -149 -16 -45 -25 -47
-34 -8 -10 46 -59 107 -110 137 -57 33 -159 42 -218 20z m152 -122 c21 -15 51
-70 51 -94 0 -6 -44 -10 -119 -10 l-120 0 10 33 c14 50 61 87 112 87 23 0 53
-7 66 -16z"/>
<path d="M3019 2504 c-61 -18 -136 -86 -165 -149 -27 -57 -32 -142 -12 -207
16 -53 87 -131 146 -159 68 -34 188 -34 256 0 103 51 159 139 160 251 2 194
-189 325 -385 264z m181 -140 c62 -52 78 -131 41 -202 -24 -47 -67 -72 -123
-72 -58 0 -104 30 -128 83 -34 74 -20 140 39 190 46 38 126 39 171 1z"/>
<path d="M3432 2107 c-48 -51 -13 -137 55 -137 45 0 62 9 79 42 19 37 10 82
-19 103 -33 23 -90 19 -115 -8z"/>
<path d="M2036 1814 c-41 -40 7 -109 59 -86 14 7 24 19 24 29 -1 16 -2 16 -6
1 -11 -41 -83 -27 -83 16 0 29 16 43 55 49 l30 4 -32 2 c-17 0 -39 -6 -47 -15z"/>
<path d="M2206 1811 c-37 -41 9 -106 60 -83 33 16 45 43 31 73 -16 32 -66 38
-91 10z m82 -28 c3 -27 -1 -35 -22 -45 -22 -9 -29 -8 -46 7 -38 35 -17 78 35
73 26 -3 30 -8 33 -35z"/>
<path d="M2482 1818 c-20 -20 -14 -65 10 -82 12 -9 27 -16 33 -16 5 1 -3 8
-18 16 -23 13 -28 21 -25 47 3 30 6 32 40 32 20 0 34 3 31 8 -7 11 -58 8 -71
-5z"/>
<path d="M2651 1773 c1 -32 4 -48 6 -35 3 13 12 22 22 22 10 0 26 -10 35 -22
l17 -23 -12 24 c-8 18 -8 25 1 31 6 4 10 18 8 31 -2 20 -10 25 -40 27 l-38 3
1 -58z m67 25 c-2 -17 -11 -24 -30 -26 -24 -3 -28 0 -28 22 0 22 4 26 31 26
26 0 30 -3 27 -22z"/>
<path d="M2810 1775 l0 -55 43 2 c36 1 38 2 10 5 -43 6 -47 40 -5 46 l27 4
-27 2 c-21 1 -28 6 -28 20 0 15 8 21 33 24 28 3 26 4 -10 5 l-43 2 0 -55z"/>
<path d="M2970 1775 l0 -55 43 2 42 1 -37 4 c-30 3 -38 9 -38 24 0 15 7 19 33
20 l32 1 -30 7 c-16 3 -31 14 -33 23 -2 13 6 18 35 21 l38 4 -42 1 -43 2 0
-55z"/>
<path d="M3132 1773 l1 -58 6 50 6 50 33 -47 c18 -27 35 -48 37 -48 3 0 4 26
3 58 -1 57 -1 57 -7 13 l-6 -45 -29 42 c-16 23 -33 42 -37 42 -5 0 -8 -26 -7
-57z"/>
<path d="M2547 1750 c-3 -11 -1 -20 4 -20 5 0 9 9 9 20 0 11 -2 20 -4 20 -2 0
-6 -9 -9 -20z"/>
</g>
</svg>
